Patient4_TMGait_0pt3_02_left_11_GRF.mot
version=1
nRows=58
nColumns=19
inDegrees=no
endheader
time	F1x	F1y	F1z	M1x	M1y	M1z	F2x	F2y	F2z	M2x	M2y	M2z	EC1x	EC1y	EC1z	EC2x	EC2y	EC2z
21.41	4.0456	2.9247	3.0466	-0.73436	-2.4592	-0.8271	-16.1034	749.9874	-44.7214	267.7849	54.0407	741.2143	-0.0592	0.0182	-0.0073	-0.0462	0.0165	0.9585
21.4293	2.7131	2.6733	2.1181	-0.74363	-1.6939	0.087342	-17.5297	769.8347	-44.2806	275.7303	54.1989	758.331	-0.0592	0.0182	-0.0073	-0.0462	0.0165	0.9585
21.4486	1.5796	2.4662	1.317	-0.7523	-1.0416	0.87633	-19.0252	794.7267	-43.3024	285.7894	53.8848	779.9876	-0.0592	0.0182	-0.0073	-0.0462	0.0165	0.9585
21.4679	0.71062	2.3164	0.69049	-0.75816	-0.53854	1.4911	-20.4576	823.3479	-41.7174	297.48	52.9409	804.948	-0.0592	0.0182	-0.0073	-0.0462	0.0165	0.9585
21.4871	0.10303	2.2181	0.24083	-0.75886	-0.18644	1.9247	-21.682	853.4981	-39.5616	309.9342	51.2889	831.1127	-0.0592	0.0182	-0.0073	-0.0462	0.0165	0.9585
21.5064	-0.28303	2.1496	-0.053188	-0.75182	0.030368	2.1877	-22.5499	882.2306	-37.0106	321.9492	48.9777	855.6824	-0.0592	0.0182	-0.0073	-0.0462	0.0165	0.9585
21.5257	-0.50392	2.0769	-0.22014	-0.73258	0.13344	2.2948	-22.9499	906.2204	-34.3696	332.1493	46.2072	875.5303	-0.0592	0.0182	-0.0073	-0.0462	0.0165	0.9585
21.545	-0.61646	1.9547	-0.29093	-0.69118	0.14913	2.2525	-22.8131	922.3412	-31.9609	339.2384	43.2371	887.7553	-0.0592	0.0182	-0.0073	-0.0462	0.0165	0.9585
21.5643	-0.66994	1.7341	-0.29526	-0.6116	0.10533	2.0527	-22.0952	928.2649	-30.0153	342.2562	40.2816	890.2299	-0.0592	0.0182	-0.0073	-0.0462	0.0165	0.9585
21.5836	-0.69805	1.3675	-0.26001	-0.47351	0.028672	1.6748	-20.7803	922.9201	-28.6231	340.7647	37.4607	882.0154	-0.0592	0.0182	-0.0073	-0.0462	0.0165	0.9585
21.6029	-0.71969	0.81192	-0.20992	-0.25765	-0.056728	1.0923	-18.9009	906.6286	-27.7611	334.8949	34.8245	863.4835	-0.0592	0.0182	-0.0073	-0.0462	0.0165	0.9585
21.6221	-0.73915	0.036431	-0.16559	0.048974	-0.12754	0.27719	-16.5221	880.9765	-27.3408	325.285	32.3848	836.1723	-0.0592	0.0182	-0.0073	-0.0462	0.0165	0.9585
21.6414	-0.7443	-0.95755	-0.14268	0.44461	-0.16149	-0.76677	-13.7102	848.5413	-27.2354	312.963	30.1183	802.5081	-0.0592	0.0182	-0.0073	-0.0462	0.0165	0.9585
21.6607	-0.70307	-2.1037	-0.15347	0.90019	-0.13239	-1.9678	-10.5248	812.4561	-27.3146	299.172	27.985	765.3955	-0.0592	0.0182	-0.0073	-0.0462	0.0165	0.9585
21.68	-0.56507	-3.2338	-0.20951	1.3449	-0.0092442	-3.1556	-7.0105	775.9705	-27.468	285.1945	25.94	727.8096	-0.0592	0.0182	-0.0073	-0.0462	0.0165	0.9585
21.6993	-0.26126	-4.0348	-0.31886	1.6507	0.24127	-4.0141	-3.1941	742.0894	-27.5992	272.2105	23.9246	692.4771	-0.0592	0.0182	-0.0073	-0.0462	0.0165	0.9585
21.7186	0.29064	-4.0075	-0.48415	1.6181	0.65341	-4.0369	0.90145	713.2471	-27.6197	261.1718	21.8708	661.5937	-0.0592	0.0182	-0.0073	-0.0462	0.0165	0.9585
21.7379	1.1741	-2.439	-0.69508	0.96482	1.2467	-2.5043	5.2529	691.0545	-27.4619	252.7045	19.7192	636.6086	-0.0592	0.0182	-0.0073	-0.0462	0.0165	0.9585
21.7571	2.4502	1.5867	-0.92674	-0.66974	2.016	1.5153	9.8075	676.1594	-27.1062	247.0574	17.4559	618.1178	-0.0592	0.0182	-0.0073	-0.0462	0.0165	0.9585
21.7764	4.1251	9.1232	-1.1353	-3.6983	2.9135	9.1084	14.4533	668.2214	-26.5918	244.0938	15.1352	605.8573	-0.0592	0.0182	-0.0073	-0.0462	0.0165	0.9585
21.7957	6.1009	21.2102	-1.2481	-8.5251	3.8177	21.3621	19.0189	665.9951	-25.9941	243.3251	12.8598	598.7974	-0.0592	0.0182	-0.0073	-0.0462	0.0165	0.9585
21.815	8.113	38.5908	-1.1537	-15.4333	4.5013	39.083	23.2641	667.5103	-25.3927	243.9799	10.7599	595.3075	-0.0592	0.0182	-0.0073	-0.0462	0.0165	0.9585
21.8343	9.6682	61.2814	-0.69974	-24.4117	4.6068	62.362	26.8776	670.3451	-24.8486	245.1116	8.9758	593.3979	-0.0592	0.0182	-0.0073	-0.0462	0.0165	0.9585
21.8536	10.0951	88.0956	0.26971	-34.9649	3.7026	90.0766	29.5391	672.0155	-24.4055	245.7486	7.6363	591.0396	-0.0592	0.0182	-0.0073	-0.0462	0.0165	0.9585
21.8729	8.9998	116.4786	1.8816	-46.0516	1.5008	119.6924	31.0212	670.4826	-24.1095	245.0912	6.8402	586.5551	-0.0592	0.0182	-0.0073	-0.0462	0.0165	0.9585
21.8921	6.6022	143.3879	4.1256	-56.4543	-1.8958	148.1143	31.3055	664.6122	-24.0164	242.6896	6.624	578.9684	-0.0592	0.0182	-0.0073	-0.0462	0.0165	0.9585
21.9114	3.2905	167.2824	6.6606	-65.5779	-5.9742	173.7398	30.674	654.3225	-24.1741	238.5057	6.915	568.1076	-0.0592	0.0182	-0.0073	-0.0462	0.0165	0.9585
21.9307	-0.69389	188.6404	9.1464	-73.6327	-10.2802	197.0483	29.6232	640.2281	-24.6029	232.7838	7.5477	554.3246	-0.0592	0.0182	-0.0073	-0.0462	0.0165	0.9585
21.95	-5.1615	208.7606	11.4075	-81.1496	-14.5536	219.333	28.6188	623.0057	-25.2576	225.8152	8.322	538.0223	-0.0592	0.0182	-0.0073	-0.0462	0.0165	0.9585
21.9693	-9.8515	228.7508	13.3736	-88.5836	-18.6118	241.6274	27.9068	603.0286	-26.0011	217.7969	9.0481	519.4042	-0.0592	0.0182	-0.0073	-0.0462	0.0165	0.9585
21.9886	-14.4224	249.2291	15.0693	-96.1925	-22.3369	264.4085	27.4932	580.3866	-26.672	208.827	9.6102	498.5035	-0.0592	0.0182	-0.0073	-0.0462	0.0165	0.9585
22.0079	-18.4862	270.335	16.5779	-104.0409	-25.653	287.6398	27.2182	555.1202	-27.1437	198.9817	9.9807	475.3604	-0.0592	0.0182	-0.0073	-0.0462	0.0165	0.9585
22.0271	-21.7048	291.7506	18.0052	-112.0118	-28.5279	310.834	26.8638	527.5467	-27.314	188.4279	10.1694	450.2823	-0.0592	0.0182	-0.0073	-0.0462	0.0165	0.9585
22.0464	-23.8874	312.9435	19.4176	-119.9043	-30.953	333.3419	26.2549	498.5097	-27.0915	177.5081	10.1784	424.0349	-0.0592	0.0182	-0.0073	-0.0462	0.0165	0.9585
22.0657	-25.008	333.4559	20.8019	-127.5477	-32.9103	354.6741	25.3212	469.3541	-26.4171	166.7229	9.9954	397.7949	-0.0592	0.0182	-0.0073	-0.0462	0.0165	0.9585
22.085	-25.1828	352.9423	22.0836	-134.8117	-34.3755	374.5373	24.1126	441.657	-25.2954	156.6292	9.6038	372.9097	-0.0592	0.0182	-0.0073	-0.0462	0.0165	0.9585
22.1043	-24.6408	371.055	23.1552	-141.5579	-35.3323	392.6915	22.7616	416.8258	-23.8034	147.6986	9.0037	350.562	-0.0592	0.0182	-0.0073	-0.0462	0.0165	0.9585
22.1236	-23.6782	387.3801	23.923	-147.6147	-35.8007	408.8546	21.4383	395.6881	-22.0697	140.179	8.217	331.4316	-0.0592	0.0182	-0.0073	-0.0462	0.0165	0.9585
22.1429	-22.578	401.531	24.3376	-152.819	-35.8368	422.765	20.2891	378.2659	-20.2441	134.0249	7.2912	315.5179	-0.0592	0.0182	-0.0073	-0.0462	0.0165	0.9585
22.1621	-21.5505	413.3097	24.3979	-157.0851	-35.5147	434.3112	19.3773	363.7898	-18.4617	128.9132	6.2962	302.1682	-0.0592	0.0182	-0.0073	-0.0462	0.0165	0.9585
22.1814	-20.6945	422.8182	24.1281	-160.4569	-34.8919	443.6205	18.6729	350.9533	-16.8074	124.3447	5.306	290.2917	-0.0592	0.0182	-0.0073	-0.0462	0.0165	0.9585
22.2007	-19.9721	430.5263	23.5525	-163.1343	-33.9805	451.1219	18.0925	338.3407	-15.2992	119.8011	4.3682	278.7135	-0.0592	0.0182	-0.0073	-0.0462	0.0165	0.9585
22.22	-19.2481	437.234	22.7033	-165.4502	-32.7695	457.531	17.5437	324.8599	-13.8958	114.8979	3.4918	266.5366	-0.0592	0.0182	-0.0073	-0.0462	0.0165	0.9585
22.2393	-18.3696	443.8946	21.6378	-167.7921	-31.2693	463.7088	16.9662	309.9792	-12.5238	109.4633	2.6512	253.3285	-0.0592	0.0182	-0.0073	-0.0462	0.0165	0.9585
22.2586	-17.2338	451.4249	20.4446	-170.5219	-29.5359	470.4975	16.3576	293.7092	-11.1201	103.5263	1.8099	239.1002	-0.0592	0.0182	-0.0073	-0.0462	0.0165	0.9585
22.2779	-15.8285	460.5878	19.251	-173.9281	-27.6911	478.6179	15.7602	276.4283	-9.6648	97.2469	0.94591	224.1651	-0.0592	0.0182	-0.0073	-0.0462	0.0165	0.9585
22.2971	-14.2351	471.9757	18.2271	-178.2218	-25.9301	488.6477	15.2249	258.6404	-8.1805	90.8239	0.063115	208.9429	-0.0592	0.0182	-0.0073	-0.0462	0.0165	0.9585
22.3164	-12.5984	486.0771	17.5847	-183.5633	-24.5049	501.0777	14.7738	240.7336	-6.7145	84.4084	-0.81193	193.7619	-0.0592	0.0182	-0.0073	-0.0462	0.0165	0.9585
22.3357	-11.0795	503.3615	17.551	-190.0975	-23.6826	516.3793	14.3602	222.8693	-5.3207	78.066	-1.628	178.7674	-0.0592	0.0182	-0.0073	-0.0462	0.0165	0.9585
22.355	-9.8009	524.3365	18.3294	-197.9854	-23.6903	535.0433	13.8777	205.0243	-4.0424	71.789	-2.3242	163.9476	-0.0592	0.0182	-0.0073	-0.0462	0.0165	0.9585
22.3743	-8.7934	549.5034	20.0794	-207.3929	-24.6803	557.5208	13.207	187.0666	-2.9359	65.5217	-2.8247	149.194	-0.0592	0.0182	-0.0073	-0.0462	0.0165	0.9585
22.3936	-7.9824	579.2013	22.8932	-218.4326	-26.7035	584.0754	12.2419	168.8542	-2.0658	59.1967	-3.0494	134.3796	-0.0592	0.0182	-0.0073	-0.0462	0.0165	0.9585
22.4129	-7.2138	613.4058	26.7711	-231.09	-29.6994	614.6051	10.918	150.3419	-1.4706	52.7768	-2.9496	119.4507	-0.0592	0.0182	-0.0073	-0.0462	0.0165	0.9585
22.4321	-6.2989	651.5459	31.6207	-245.1499	-33.5115	648.4859	9.2438	131.5976	-1.146	46.2678	-2.5333	104.4422	-0.0592	0.0182	-0.0073	-0.0462	0.0165	0.9585
22.4514	-5.0775	692.3784	37.2724	-260.1429	-37.9262	684.4824	7.289	112.7579	-1.0468	39.7052	-1.8598	89.4433	-0.0592	0.0182	-0.0073	-0.0462	0.0165	0.9585
22.4707	-3.4835	733.9534	43.4911	-275.3321	-42.7067	720.7475	5.1641	94.0248	-1.0896	33.1555	-1.0313	74.599	-0.0592	0.0182	-0.0073	-0.0462	0.0165	0.9585
22.49	-1.5648	773.8005	49.9843	-289.7885	-47.6089	754.9957	3.0287	75.7217	-1.1714	26.7347	-0.18349	60.1548	-0.0592	0.0182	-0.0073	-0.0462	0.0165	0.9585
22.5093	0.56378	809.3275	56.415	-302.548	-52.3736	784.8628	1.0936	58.336	-1.2003	20.6199	0.53893	46.4901	-0.0592	0.0182	-0.0073	-0.0462	0.0165	0.9585
